# xmcd
#
# Track frame offsets: 
#        150
#        12454
#        38741
#        58278
#        89000
#        103069
#        120944
#        137646
#        162183
#        194077
#        211303
#
# Disc length: 3038 seconds
#
# Revision: 1
# Processed by: cddbd v1.5.2PL0 Copyright (c) Steve Scherf et al.
# Submitted via: ExactAudioCopy v1.0b3
#
DISCID=9d0bdc0b
DTITLE=JR Clark - Getaway
DYEAR=2007
DGENRE=Blues
TTITLE0=Last Call Boogie
TTITLE1=Getaway
TTITLE2=Lookin' For Love Tonight
TTITLE3=Get What She Needs
TTITLE4=Good Stuff
TTITLE5=Let's Go Out Tonight (Revisited)
TTITLE6=How Long
TTITLE7=You Don't Know
TTITLE8=Lady Of The Night
TTITLE9=Bring Our Children Home
TTITLE10=Sweet Little Lady
EXTD=
EXTT0=
EXTT1=
EXTT2=
EXTT3=
EXTT4=
EXTT5=
EXTT6=
EXTT7=
EXTT8=
EXTT9=
EXTT10=
PLAYORDER=
